<svg id="Calque_1" data-name="Calque 1" xmlns="http://www.w3.org/2000/svg" viewBox="0 0 1069.73 567.92"><defs><style>.cls-1{fill:#81a9b0;}.cls-2{fill:#b4e3ec;}.cls-3{fill:#9cc8d1;}.cls-4{fill:#769b9f;}.cls-5{fill:#91c7cd;}.cls-6{fill:#678b8e;}.cls-7{fill:#82bac0;}.cls-8{fill:#85b1b7;}.cls-9{fill:#6e969a;}.cls-10{fill:#a0d0d7;}.cls-11{fill:#64898d;}.cls-12{fill:#4d6d6d;}</style></defs><title>Planete</title><path class="cls-1" d="M875,434.22c0,156.82-127.13,284-284,284s-284-127.13-284-284,127.13-284,284-284S875,277.39,875,434.22Z" transform="translate(-62.67 -150.25)"/><path class="cls-2" d="M726.92,683.62C815.16,635.45,875,541.82,875,434.22c0-156.83-127.13-284-284-284s-284,127.14-284,284a282.82,282.82,0,0,0,30.36,127.87C337.54,562.14,459.37,661.94,726.92,683.62Z" transform="translate(-62.67 -150.25)"/><path class="cls-1" d="M591.06,150.25c-156.82,0-284,127.14-284,284q0,10.56.77,20.92c15.48,16.22,46.11,40.09,116.59,56.58C496.1,528.49,509.6,527,610.32,557.44s141.18,7.18,186.07,9.15c20.42.9,36.13-.6,47.25-2.5A282.67,282.67,0,0,0,875,434.22C875,277.39,747.89,150.25,591.06,150.25Z" transform="translate(-62.67 -150.25)"/><path class="cls-2" d="M591.06,150.25c-140.3,0-256.83,101.77-279.82,235.52C342.44,401,549.36,493.42,875,435.4c0-.39,0-.79,0-1.18C875,277.39,747.89,150.25,591.06,150.25Z" transform="translate(-62.67 -150.25)"/><path class="cls-3" d="M356.11,274.72S498.32,324.92,643,324.57c127-.29,189.35,18.46,220.64,29.93-34.45-118-143.46-204.24-272.6-204.24C493.36,150.25,407.2,199.6,356.11,274.72Z" transform="translate(-62.67 -150.25)"/><path class="cls-1" d="M835.78,290.13c-49.39-83.71-140.5-139.88-244.72-139.88a282.56,282.56,0,0,0-147,41h0s118.61,66.84,391.69,98.92Z" transform="translate(-62.67 -150.25)"/><path class="cls-2" d="M469.38,177.58c61.43,29.65,158.05,59.89,320.36,53.78a284.12,284.12,0,0,0-320.36-53.78Z" transform="translate(-62.67 -150.25)"/><path class="cls-4" d="M875,434.22c0-134.91-94.11-247.77-220.25-276.7,3.66,4.49,226.79,281.32-118.44,555.33a285,285,0,0,0,54.73,5.32C747.89,718.17,875,591,875,434.22Z" transform="translate(-62.67 -150.25)"/><path class="cls-5" d="M874.38,416.1c-.19-3-.4-6.09-.69-9.11-.16-1.73-.37-3.44-.56-5.16-.31-2.76-.65-5.51-1-8.24q-.38-2.68-.82-5.34-.65-4-1.42-8c-.34-1.75-.67-3.51-1-5.24-.57-2.72-1.22-5.41-1.87-8.1-.39-1.6-.75-3.21-1.17-4.8-.85-3.25-1.79-6.48-2.75-9.69-.29-1-.55-2-.85-3-1.26-4-2.62-8-4.05-12-.61-1.69-1.28-3.35-1.92-5-.9-2.33-1.79-4.67-2.75-7-.79-1.89-1.62-3.76-2.44-5.63-.89-2-1.8-4.06-2.74-6.07s-1.86-3.89-2.82-5.82-1.88-3.71-2.84-5.55-2.09-4-3.18-5.93c-.94-1.68-1.91-3.35-2.88-5-1.19-2-2.37-4.09-3.61-6.1-.83-1.35-1.71-2.66-2.56-4a283.74,283.74,0,0,0-16.52-23.17c-.68-.87-1.35-1.75-2-2.61-1.84-2.28-3.74-4.5-5.65-6.72-.78-.9-1.56-1.81-2.35-2.71q-2.94-3.33-6-6.55-1.11-1.19-2.25-2.36c-2.15-2.23-4.32-4.44-6.54-6.59-.56-.54-1.12-1.07-1.69-1.61a284.67,284.67,0,0,0-44.79-35l-.22-.14q-4.81-3-9.76-5.88l-.53-.3a282.48,282.48,0,0,0-77.26-30.24h0c3.44,4.22,201.14,249.59-63.15,506.83a1090.32,1090.32,0,0,0,135.29,19.26q5.09-2.78,10-5.78c1-.63,2.08-1.26,3.11-1.9q4.06-2.51,8-5.15c.77-.52,1.56-1,2.32-1.53q4.82-3.28,9.48-6.75c.95-.7,1.88-1.42,2.82-2.13q3.65-2.78,7.21-5.67c.85-.69,1.71-1.37,2.56-2.07q4.45-3.7,8.75-7.58c.81-.73,1.59-1.47,2.39-2.21q3.37-3.11,6.64-6.33c.84-.83,1.69-1.65,2.53-2.49q4.08-4.12,8-8.4c.62-.67,1.21-1.37,1.82-2.05q3.18-3.54,6.23-7.18c.78-.94,1.57-1.88,2.34-2.82,2.46-3,4.89-6.08,7.23-9.2.37-.48.71-1,1.07-1.47q3.07-4.15,6-8.42,1-1.5,2-3,3-4.48,5.81-9.06c.24-.39.49-.77.73-1.16,2-3.38,4-6.82,5.92-10.3.57-1,1.13-2.08,1.69-3.12q2.36-4.43,4.59-9c.33-.68.69-1.36,1-2,1.72-3.59,3.35-7.22,4.92-10.89.44-1,.86-2.06,1.29-3.09q1.88-4.54,3.62-9.17c.32-.87.67-1.74,1-2.61q2.06-5.69,3.88-11.48c.3-.95.57-1.9.86-2.86q1.45-4.78,2.73-9.63c.27-1,.54-2,.8-3q1.51-6,2.77-12c.16-.81.31-1.62.47-2.42q1-5.13,1.84-10.31c.17-1.09.35-2.17.51-3.25.61-4.15,1.16-8.33,1.59-12.53.05-.52.09-1,.13-1.57q.55-5.66.87-11.39c.06-1.13.13-2.27.18-3.41.19-4.31.33-8.64.33-13,0-4.59-.13-9.15-.35-13.68C874.61,419.05,874.48,417.58,874.38,416.1Z" transform="translate(-62.67 -150.25)"/><path class="cls-6" d="M874.38,416.1c-.19-3-.4-6.09-.69-9.11-.16-1.73-.37-3.44-.56-5.16-.31-2.76-.65-5.51-1-8.24q-.38-2.68-.82-5.34-.65-4-1.42-8c-.34-1.75-.67-3.51-1-5.24-.57-2.72-1.22-5.41-1.87-8.1-.39-1.6-.75-3.21-1.17-4.8-.85-3.25-1.79-6.48-2.75-9.69-.29-1-.55-2-.85-3-1.26-4-2.62-8-4.05-12-.61-1.69-1.28-3.35-1.92-5-.9-2.33-1.79-4.67-2.75-7-.79-1.89-1.62-3.76-2.44-5.63-.89-2-1.8-4.06-2.74-6.07s-1.86-3.89-2.82-5.82-1.88-3.71-2.84-5.55-2.09-4-3.18-5.93c-.94-1.68-1.91-3.35-2.88-5-1.19-2-2.37-4.09-3.61-6.1-.83-1.35-1.71-2.66-2.56-4a283.74,283.74,0,0,0-16.52-23.17c-.68-.87-1.35-1.75-2-2.61-1.84-2.28-3.74-4.5-5.65-6.72-.78-.9-1.56-1.81-2.35-2.71q-2.94-3.33-6-6.55-1.11-1.19-2.25-2.36c-2.15-2.23-4.32-4.44-6.54-6.59-.56-.54-1.12-1.07-1.69-1.61a284.67,284.67,0,0,0-44.79-35l-.22-.14q-4.81-3-9.76-5.88l-.53-.3a282.48,282.48,0,0,0-77.26-30.24h0c3,3.71,155.57,193,14.48,413.14,60,8.15,92.23-5.59,127.14-4.07,20.36.9,36-.59,47.15-2.48.46-.89.93-1.78,1.37-2.69q2.27-4.52,4.38-9.14c.75-1.64,1.51-3.27,2.23-4.93,1.46-3.36,2.84-6.76,4.17-10.18.54-1.37,1.11-2.73,1.63-4.12,1.79-4.82,3.47-9.7,5-14.64.17-.54.3-1.09.46-1.64q2-6.59,3.69-13.31c.42-1.67.78-3.37,1.17-5,.79-3.42,1.54-6.85,2.2-10.31.37-1.92.7-3.85,1-5.79q.85-5,1.53-10.06c.26-1.95.52-3.9.74-5.86.4-3.6.72-7.22,1-10.85.13-1.72.29-3.43.39-5.16.3-5.36.49-10.74.49-16.17,0-4.59-.13-9.15-.35-13.68C874.61,419.05,874.48,417.58,874.38,416.1Z" transform="translate(-62.67 -150.25)"/><path class="cls-7" d="M875,435.4c0-.39,0-.78,0-1.18,0-4.59-.13-9.15-.35-13.68-.07-1.49-.2-3-.29-4.44-.19-3-.4-6.09-.69-9.11-.16-1.73-.37-3.44-.56-5.16-.31-2.76-.65-5.51-1-8.24q-.38-2.68-.82-5.34-.65-4-1.42-8c-.34-1.75-.67-3.51-1-5.24-.57-2.72-1.22-5.41-1.87-8.1-.39-1.6-.75-3.21-1.17-4.8-.85-3.25-1.79-6.48-2.75-9.69-.29-1-.55-2-.85-3-1.26-4-2.62-8-4.05-12-.61-1.69-1.28-3.35-1.92-5-.9-2.33-1.79-4.67-2.75-7-.79-1.89-1.62-3.76-2.44-5.63-.89-2-1.8-4.06-2.74-6.07s-1.86-3.89-2.82-5.82-1.88-3.71-2.84-5.55-2.09-4-3.18-5.93c-.94-1.68-1.91-3.35-2.88-5-1.19-2-2.37-4.09-3.61-6.1-.83-1.35-1.71-2.66-2.56-4a283.74,283.74,0,0,0-16.52-23.17c-.68-.87-1.35-1.75-2-2.61-1.84-2.28-3.74-4.5-5.65-6.72-.78-.9-1.56-1.81-2.35-2.71q-2.94-3.33-6-6.55-1.11-1.19-2.25-2.36c-2.15-2.23-4.32-4.44-6.54-6.59-.56-.54-1.12-1.07-1.69-1.61a284.67,284.67,0,0,0-44.79-35l-.22-.14q-4.81-3-9.76-5.88l-.53-.3a282.48,282.48,0,0,0-77.26-30.24h0c2.46,3,104.39,129.5,65.39,295.44A1211.78,1211.78,0,0,0,875,435.4Z" transform="translate(-62.67 -150.25)"/><path class="cls-8" d="M863,352.27q-.9-3-1.89-6c-.57-1.76-1.16-3.51-1.76-5.26q-1-2.86-2-5.69t-2.07-5.41q-1.06-2.67-2.16-5.32-1.18-2.81-2.43-5.6c-.73-1.64-1.47-3.29-2.23-4.92-.91-2-1.86-3.89-2.81-5.81-.74-1.5-1.49-3-2.26-4.48-1.06-2-2.16-4.07-3.27-6.09-.73-1.32-1.45-2.65-2.19-4-1.24-2.17-2.52-4.31-3.81-6.45-.68-1.12-1.35-2.25-2-3.36-1.47-2.34-3-4.65-4.51-7-.57-.86-1.14-1.74-1.72-2.59q-2.65-3.88-5.43-7.66c-.4-.54-.78-1.09-1.18-1.63q-3.32-4.46-6.81-8.8l-.15-.2a284.08,284.08,0,0,0-157.4-98.58c1.79,2.19,56.07,69.58,70.67,169.9,73.29,5.64,114.54,18.41,138.15,27.05C863.39,353.74,863.18,353,863,352.27Z" transform="translate(-62.67 -150.25)"/><path class="cls-9" d="M833.45,286.32c-.46-.75-.91-1.5-1.37-2.24q-5.87-9.4-12.44-18.31l-.8-1.07q-3-4-6.15-8l-.88-1.1a284.08,284.08,0,0,0-157-98.13c1.43,1.76,36.59,45.39,58,114.27,36.88,6.75,77.73,13,122.9,18.33C835,288.85,834.22,287.58,833.45,286.32Z" transform="translate(-62.67 -150.25)"/><path class="cls-10" d="M762.46,207.91l-.91-.7c-2.74-2.06-5.53-4.06-8.35-6l-1.55-1.08q-4.22-2.89-8.54-5.64l-1.45-.91q-4.51-2.83-9.12-5.49l-.7-.4a282.31,282.31,0,0,0-77.07-30.14c1.12,1.38,23,28.49,42.66,73.29,28.14,1.51,58.77,1.81,92.22.56A284.87,284.87,0,0,0,762.46,207.91Z" transform="translate(-62.67 -150.25)"/><path class="cls-11" d="M328.08,329.3s-182.79-28.85-204,9.12,251.78,131.95,437.8,174.27,399.27,75.74,480,47.42c73.32-25.72-168.43-104.82-168.43-104.82l.8-17.41s203,54.27,252.89,126.32c43.55,62.93-189.62,68.18-567.37-16.37C273,483.65,18.13,379.63,69.24,322.58c53.85-60.09,266.36-10.5,266.36-10.5Z" transform="translate(-62.67 -150.25)"/><path class="cls-12" d="M874.22,437.88l-.8,17.41s241.75,79.1,168.43,104.82c-63.36,22.23-204.88,7.07-354.31-21.23-5.45,9.93-11.46,20.71-18.28,31.79,314.59,60.86,497.18,50.35,457.86-6.47C1077.24,492.15,874.22,437.88,874.22,437.88Z" transform="translate(-62.67 -150.25)"/></svg>